<?xml version="1.0" encoding="UTF-8"?>
<svg width="260px" height="201px" viewBox="0 0 260 201" version="1.1" xmlns="http://www.w3.org/2000/svg" xmlns:xlink="http://www.w3.org/1999/xlink">
    <!-- Generator: Sketch 49.3 (51167) - http://www.bohemiancoding.com/sketch -->
    <title>Millennium</title>
    <desc>Created with Sketch.</desc>
    <defs>
        <polygon id="path-1" points="0.046544255 0.650168433 35.3907868 0.650168433 35.3907868 24.7368983 0.046544255 24.7368983"></polygon>
    </defs>
    <g id="Symbols" stroke="none" stroke-width="1" fill="none" fill-rule="evenodd">
        <g id="00-General/Footer" transform="translate(-108.000000, -49.000000)">
            <g id="footer">
                <g id="1st-row" transform="translate(108.000000, 49.000000)">
                    <g id="Millennium">
                        <path d="M147.721563,71 L155,71 L155,0 L147.721563,0 L147.721563,71 Z M104,71 L111.278437,71 L111.278437,0 L104,0 L104,71 Z M136.792587,71 L144.071024,71 L144.071024,13.8401338 L136.792587,13.8401338 L136.792587,71 Z M114.928976,71 L122.213073,71 L122.213073,13.8401338 L114.928976,13.8401338 L114.928976,71 Z M125.857951,71 L133.136389,71 L133.136389,25.8752789 L125.857951,25.8752789 L125.857951,71 Z" id="Fill-1" fill="#BA0C2F" fill-rule="nonzero"></path>
                        <g id="Group-67" transform="translate(4.000000, 92.000000)" fill="#4E4E4E" fill-rule="nonzero">
                            <path d="M46.8976983,45.0531376 C46.8976983,44.6746825 46.8806723,44.301876 46.8522955,43.9403666 C46.8068927,43.5901546 46.7047364,43.2512395 46.5344759,42.9236218 L48.6911086,42.9236218 C48.5265235,43.2512395 48.4300425,43.5901546 48.3846397,43.9460153 C48.3392369,44.3075246 48.3165356,44.6746825 48.3165356,45.0587861 L48.3165356,51.1705531 C48.3165356,51.5207651 48.3392369,51.8879231 48.3846397,52.255081 C48.4300425,52.6165903 48.5265235,52.9668025 48.6911086,53.2944203 L46.5344759,53.2944203 C46.7047364,52.9668025 46.8068927,52.6165903 46.8522955,52.255081 C46.8806723,51.8879231 46.8976983,51.5264138 46.8976983,51.1705531 L46.8976983,48.0355894 L42.2098599,48.0355894 L42.2098599,51.1705531 C42.2098599,51.5264138 42.226886,51.8879231 42.2666135,52.255081 C42.3063409,52.6165903 42.4084972,52.9668025 42.567407,53.2944203 L40.422125,53.2944203 C40.5867102,52.9668025 40.6945418,52.6165903 40.7399446,52.255081 C40.7683214,51.8879231 40.7853474,51.5207651 40.7853474,51.1705531 L40.7853474,45.0587861 C40.7853474,44.6746825 40.7683214,44.3075246 40.7399446,43.9460153 C40.6945418,43.5901546 40.5867102,43.2512395 40.422125,42.9236218 L42.567407,42.9236218 C42.4084972,43.2512395 42.3063409,43.5901546 42.2666135,43.9460153 C42.226886,44.3075246 42.2098599,44.6746825 42.2098599,45.0587861 L42.2098599,47.3860024 L46.8976983,47.3860024 L46.8976983,45.0531376 Z" id="Fill-2"></path>
                            <path d="M61.3420291,47.897764 C61.3420291,49.4793672 60.9220532,50.8067843 60.0764262,51.8800151 C59.2194485,52.9758402 57.9651964,53.5350499 56.3136698,53.5576442 C54.6678186,53.5350499 53.4589692,53.0210288 52.6871218,52.0099325 C51.8982483,51.0327276 51.5179999,49.8069851 51.535026,48.3157591 C51.535026,46.7341558 51.9663525,45.4010902 52.8290055,44.3222109 C53.6689572,43.2433316 54.917534,42.6897704 56.5690605,42.667176 C58.2205871,42.6897704 59.4351118,43.1924944 60.2069593,44.1922936 C60.9617807,45.1807955 61.3420291,46.4178352 61.3420291,47.897764 M59.7018532,48.3496506 C59.7018532,47.8017381 59.6621257,47.2368798 59.5769955,46.6607243 C59.4691639,46.0902175 59.2875528,45.553602 59.0378374,45.0565267 C58.8051481,44.5594514 58.4703025,44.1471048 58.0333006,43.8364327 C57.6133248,43.5314093 57.0798419,43.3788975 56.4385275,43.3788975 C55.3034577,43.4014918 54.4805321,43.8590272 53.9640753,44.7458546 C53.8392177,44.9435551 53.7200354,45.1582012 53.6349051,45.3954417 C53.5270735,45.6439793 53.4362679,45.8981656 53.3795144,46.1580004 C53.243306,46.7002644 53.1752019,47.2707712 53.1752019,47.8695211 C53.1581757,49.0048862 53.3908651,50.1007114 53.8732697,51.1513479 C54.1286605,51.6484231 54.4635061,52.0494726 54.8891573,52.354496 C55.2977824,52.6821139 55.8142392,52.8459228 56.4385275,52.8459228 C57.0060624,52.8459228 57.5054931,52.7160054 57.9311443,52.4561705 C58.3397694,52.2076329 58.6802904,51.8856637 58.9413564,51.4789656 C59.4464624,50.6090839 59.7018532,49.5697446 59.7018532,48.3496506" id="Fill-4"></path>
                            <path d="M66.3896845,53.2955499 C66.5599449,53.0074723 66.6677766,52.6685572 66.707504,52.2844536 C66.7302055,51.9059986 66.7415561,51.5331921 66.7415561,51.1660342 L66.7415561,43.7324988 L64.6360016,43.7324988 C64.4657412,43.7324988 64.28413,43.743796 64.0911682,43.7776875 C63.9038816,43.8228761 63.7052445,43.9245506 63.5066072,44.0883595 L63.8244268,42.9191029 L71.7812661,42.9191029 C71.6393824,43.2467207 71.3783162,43.4613668 71.0094186,43.5630413 C70.6291702,43.6873102 70.2602726,43.7381474 69.9027256,43.7324988 L68.154718,43.7324988 L68.154718,51.1660342 C68.1433673,51.5331921 68.1660688,51.9059986 68.2114715,52.2844536 C68.251199,52.6685572 68.34768,53.0074723 68.5065896,53.2955499 L66.3896845,53.2955499 Z" id="Fill-6"></path>
                            <path d="M75.9719437,52.6459629 L77.7880555,52.6459629 C78.2874862,52.6459629 78.7812416,52.5725314 79.2636462,52.4313168 C79.7403756,52.2957507 80.1660267,52.0585103 80.5349244,51.7195953 L80.2454816,53.2164699 C79.8141551,53.2673071 79.3033736,53.2955499 78.724488,53.2955499 L74.1501567,53.2955499 C74.3204172,53.0074723 74.4339242,52.6685572 74.5020283,52.2901022 C74.5304051,51.9059986 74.5474312,51.5331921 74.5474312,51.1660342 L74.5474312,45.0542673 C74.5474312,44.6758123 74.5417558,44.2973571 74.5190545,43.9132535 C74.4736516,43.540447 74.36582,43.2071806 74.2012348,42.9191029 L79.7233495,42.9191029 L79.7857783,44.1730883 C79.5133616,43.9358478 79.1728406,43.7720389 78.7698909,43.6760131 C78.366941,43.60823 77.9185885,43.5686899 77.4361838,43.5686899 L75.9719437,43.5686899 L75.9719437,47.4605636 C77.2148452,47.4718609 78.4577466,47.4379693 79.6892974,47.3419435 C79.5644397,47.5622382 79.3714779,47.7373442 79.0990611,47.8672617 C78.8266443,47.9858819 78.5315262,48.0819078 78.2080313,48.1440422 C77.5213141,48.2344195 76.9083764,48.2796083 76.3635428,48.268311 L75.9719437,48.268311 L75.9719437,52.6459629 Z" id="Fill-8"></path>
                            <path d="M83.772711,45.0480539 C83.772711,44.6695987 83.7670357,44.2911437 83.7443342,43.9070401 C83.6989315,43.5342336 83.5967752,43.2066157 83.4208394,42.918538 L85.5490952,42.918538 C85.3845102,43.2066157 85.2823538,43.5398821 85.2369511,43.9126886 C85.1972236,44.2967922 85.1745223,44.6752474 85.1972236,45.059351 L85.1972236,52.645398 L86.3947223,52.645398 C86.6103856,52.645398 86.8373995,52.6284524 87.0587381,52.6002094 C87.2744014,52.5719665 87.478714,52.5324264 87.6773511,52.470292 C88.0916516,52.3460232 88.488926,52.0974855 88.8862005,51.7190305 L88.5797316,53.2497964 C88.2619121,53.283688 87.9384171,53.2949852 87.6205976,53.2949852 L83.2392282,53.2949852 C83.3640859,53.1255276 83.4605668,52.8713414 83.5343463,52.5324264 C83.6138013,52.2161058 83.6648794,51.8715422 83.6989315,51.4930871 C83.7443342,50.6796912 83.772711,50.0470499 83.772711,49.6008118 L83.772711,45.0480539 Z" id="Fill-10"></path>
                            <path d="M90.9054897,51.266014 C91.0303474,51.429823 91.1722311,51.5992804 91.3311409,51.7856837 C91.4900506,51.9777356 91.6716618,52.1641388 91.887325,52.3335963 C92.3016255,52.7064028 92.9145633,52.8984546 93.7261382,52.9097517 C94.3504265,52.9097517 94.8555326,52.7289971 95.2414563,52.3674877 C95.6217047,52.0229242 95.8203419,51.5258489 95.8260173,50.8762619 C95.8203419,50.2040804 95.5933279,49.6731137 95.1506507,49.2777128 C94.6966228,48.9049063 94.1744907,48.5659914 93.5785791,48.2722651 C93.300487,48.1084562 93.0223948,47.9446472 92.7556534,47.7751898 C92.4889121,47.5887865 92.2391967,47.391086 92.0178581,47.1820885 C91.5468041,46.7753906 91.3084394,46.2048836 91.3027642,45.4762165 C91.3084394,44.532903 91.6319344,43.8268301 92.2618981,43.3523491 C92.8748358,42.894814 93.6126311,42.6688707 94.4752842,42.6688707 C95.2982098,42.7027621 96.1154601,42.7310051 96.9100089,42.7648965 L96.9100089,44.2617711 C96.586514,43.8889646 96.2743699,43.6347783 95.967901,43.4879152 C95.6500814,43.3749436 95.2301056,43.3184577 94.7136489,43.3184577 C94.1517893,43.3184577 93.6920861,43.4540237 93.3402145,43.7364528 C92.9656414,44.0301792 92.7783548,44.4820658 92.7783548,45.10341 C92.7783548,45.4027849 92.8521344,45.6682683 92.9883427,45.8998602 C93.1075251,46.1258035 93.2834609,46.3348011 93.4934488,46.5325014 C93.7147874,46.7076076 93.9588275,46.8770651 94.2312442,47.040874 C94.4979856,47.1877371 94.7704024,47.3458974 95.0598451,47.5097063 C95.3436126,47.6509209 95.6217047,47.8147298 95.8941214,47.9954844 C96.1722136,48.1705906 96.421929,48.3682909 96.6319169,48.5942343 C96.8362294,48.814529 97.0064898,49.0687153 97.1313475,49.3624416 C97.2505299,49.6674651 97.3129587,50.0120286 97.3129587,50.4017809 C97.284582,51.4072286 96.8929829,52.1867332 96.1381614,52.7233486 C95.4003661,53.2712611 94.5604145,53.5480416 93.6183065,53.5593388 C92.6932246,53.5367444 91.7908441,53.3503413 90.9054897,52.9888319 L90.9054897,51.266014 Z" id="Fill-12"></path>
                            <path d="M112.989975,53.2955499 L111.264669,48.7484406 L107.706225,48.7484406 C107.365704,49.4601621 107.05356,50.1718835 106.781144,50.8779564 C106.48035,51.5896778 106.327116,52.1884277 106.315765,52.6742059 C106.315765,52.8832035 106.332791,53.0865524 106.366843,53.2955499 L104.386146,53.2955499 L104.732342,52.8436634 C104.993408,52.5160455 105.34528,51.9116471 105.799308,51.0304682 C106.241985,50.1549377 106.701689,49.1890301 107.172743,48.1440422 C107.649472,47.0821086 108.046746,46.1049037 108.387267,45.2124276 C108.716437,44.3368972 108.886698,43.7212017 108.898049,43.365341 L108.915075,42.9191029 L110.782265,42.9191029 C111.695996,46.2969555 112.89917,49.5505393 114.391787,52.6911516 L114.703931,53.2955499 L112.989975,53.2955499 Z M109.891235,44.6080292 C109.868533,44.5402462 109.845832,44.4555175 109.817455,44.3707887 C109.772052,44.28606 109.709624,44.2352227 109.624493,44.2239256 C109.562065,44.2352227 109.505311,44.28606 109.454233,44.3707887 C109.403155,44.4781118 109.374778,44.557192 109.352077,44.6080292 L107.978642,48.0988536 L110.997928,48.0988536 L109.891235,44.6080292 Z" id="Fill-14"></path>
                            <path d="M116.732868,53.2955499 C117.005285,52.6007743 117.164195,51.8212697 117.215273,50.9570366 C117.266351,50.0871548 117.283377,49.285056 117.283377,48.5507401 L117.283377,45.0881587 C117.283377,44.6645151 117.266351,44.2634657 117.215273,43.879362 C117.152844,43.4952584 117.005285,43.1732891 116.778271,42.9191029 L118.378719,42.9191029 C118.537629,42.9191029 118.662486,42.9360486 118.741941,42.958643 C118.832748,42.9812373 118.923553,43.0603175 119.014359,43.1845863 C119.212995,43.4557183 119.502439,43.9019563 119.882687,44.5345977 C120.262935,45.1615904 120.580754,45.6869086 120.847496,46.0992552 L124.002991,50.6689588 C124.065419,50.7593362 124.122173,50.844065 124.184602,50.9118479 C124.241354,51.0078739 124.292433,51.0587111 124.33216,51.0587111 C124.394589,51.0587111 124.434317,51.019171 124.439992,50.9457395 L124.439992,50.748039 L124.439992,45.0147272 C124.439992,44.4555175 124.411615,44.0205766 124.349187,43.7099045 C124.275407,43.3935839 124.178925,43.1281004 124.065419,42.9191029 L125.694244,42.9191029 C125.512632,43.2919094 125.393451,43.6816616 125.331021,44.0940082 C125.257243,44.5063547 125.22319,44.9299985 125.22319,45.3479936 L125.22319,51.8495127 C125.22319,52.3804795 125.234541,52.8832035 125.251566,53.363333 L124.122173,53.363333 L118.338992,44.8735126 C118.287914,44.7718381 118.225485,44.7097037 118.15738,44.6984066 C118.094952,44.7097037 118.060899,44.7887839 118.060899,44.935647 L118.060899,49.1268957 C118.055224,49.7877799 118.077925,50.4938528 118.129004,51.2281686 C118.15738,51.9737816 118.299264,52.6629087 118.537629,53.2955499 L116.732868,53.2955499 Z" id="Fill-16"></path>
                            <path d="M128.728853,45.0559618 C128.728853,44.6775068 128.717502,44.2934032 128.694801,43.914948 C128.649398,43.5421415 128.547242,43.2088751 128.382657,42.9207975 C129.971754,42.886906 131.572203,42.8360686 133.184003,42.7626371 C134.534735,42.7739342 135.613052,43.2314696 136.413275,44.1465399 C137.219175,45.0446647 137.622125,46.2365157 137.633476,47.722093 C137.610775,49.5352882 137.082967,50.9248397 136.055729,51.896396 C135.01714,52.8623037 133.728835,53.3480818 132.190816,53.359379 C130.669823,53.3367847 129.404219,53.3141903 128.382657,53.2972446 C128.547242,53.0035183 128.649398,52.6702519 128.694801,52.2917968 C128.717502,51.9076931 128.728853,51.5348866 128.728853,51.1733773 L128.728853,45.0559618 Z M130.14769,51.4784009 C130.130664,52.0376105 130.261198,52.3934712 130.522264,52.5346858 C130.789005,52.6646032 131.333839,52.7210891 132.17379,52.709792 C133.56425,52.6984947 134.557437,52.2466081 135.147673,51.3428348 C135.720883,50.4673044 136.00465,49.348885 135.9933,47.993225 C135.981949,45.0051246 134.540411,43.4800071 131.668683,43.4122242 C131.044396,43.4235214 130.53929,43.46871 130.159042,43.5421415 C130.153365,43.7850306 130.14769,44.0448655 130.14769,44.3103489 L130.14769,51.4784009 Z" id="Fill-18"></path>
                            <path d="M153.136259,51.7941566 C153.482455,52.3025291 153.925132,52.7996044 154.464291,53.2966797 L153.164636,53.2966797 C152.846817,53.2966797 152.591425,53.2063024 152.387113,53.0368448 C152.194152,52.8786846 152.012541,52.6640384 151.84228,52.398555 L149.912661,49.5742634 C149.606192,49.0941339 149.362152,48.7552189 149.169191,48.5462213 C148.964878,48.3654667 148.647058,48.2581436 148.215732,48.2355493 L148.215732,51.1671639 C148.204381,51.5343217 148.221407,51.9071282 148.261135,52.2912319 C148.300862,52.669687 148.408693,53.0086019 148.567603,53.2966797 L146.365568,53.2966797 C146.598257,52.9125761 146.72879,52.5397696 146.762843,52.1613146 C146.785544,51.7828594 146.796894,51.4157016 146.796894,51.0654894 L146.796894,45.055397 C146.796894,44.6769419 146.785544,44.2928383 146.762843,43.9143833 C146.717439,43.5359281 146.615283,43.2083104 146.445023,42.9202326 C147.77873,42.8863411 149.055683,42.8355039 150.275884,42.7620722 C151.087459,42.7733695 151.700396,42.9767185 152.109021,43.3664706 C152.523322,43.76752 152.721959,44.2928383 152.721959,44.9367768 C152.716283,45.6936869 152.466568,46.3093825 151.978488,46.7951606 C151.518785,47.2809387 150.985302,47.6424481 150.383715,47.8853371 L153.136259,51.7941566 Z M148.215732,47.6085566 C148.459772,47.6367994 148.698136,47.6537452 148.930826,47.6537452 C150.502898,47.6424481 151.291771,46.8459978 151.303121,45.2643945 C151.303121,44.8520479 151.257718,44.5300788 151.166913,44.2871897 C151.059081,44.0499492 150.900171,43.863546 150.684509,43.7392771 C150.497223,43.6037112 150.258858,43.5189823 149.97509,43.4737937 C149.691323,43.4342536 149.362152,43.4116593 148.987579,43.4116593 L148.249783,43.4116593 C148.227082,43.6601969 148.215732,43.9200318 148.215732,44.1911638 L148.215732,47.6085566 Z" id="Fill-20"></path>
                            <path d="M158.195833,52.6459629 L160.01762,52.6459629 C160.517051,52.6459629 161.010806,52.5725314 161.493211,52.4313168 C161.96994,52.2957507 162.389915,52.0585103 162.764489,51.7195953 L162.475046,53.2164699 C162.043719,53.2673071 161.538613,53.2955499 160.954052,53.2955499 L156.379721,53.2955499 C156.549981,53.0074723 156.663489,52.6685572 156.725918,52.2901022 C156.75997,51.9059986 156.776996,51.5331921 156.776996,51.1660342 L156.776996,45.0542673 C156.776996,44.6758123 156.77132,44.2973571 156.748619,43.9132535 C156.703216,43.540447 156.595385,43.2071806 156.436475,42.9191029 L161.952914,42.9191029 L162.009668,44.1730883 C161.73725,43.9358478 161.402406,43.7720389 160.999456,43.6760131 C160.59083,43.60823 160.148152,43.5686899 159.665749,43.5686899 L158.195833,43.5686899 L158.195833,47.4605636 C159.44441,47.4718609 160.681636,47.4379693 161.918862,47.3419435 C161.794004,47.5622382 161.601042,47.7373442 161.334301,47.8672617 C161.056208,47.9858819 160.761091,48.0819078 160.431921,48.1440422 C159.745203,48.2344195 159.132265,48.2796083 158.593107,48.268311 L158.195833,48.268311 L158.195833,52.6459629 Z" id="Fill-22"></path>
                            <path d="M165.000577,51.266014 C165.131109,51.429823 165.272993,51.5992804 165.426228,51.7856837 C165.585138,51.9777356 165.772424,52.1641388 165.982411,52.3335963 C166.396712,52.7064028 167.00965,52.8984546 167.821224,52.9097517 C168.451189,52.9097517 168.956295,52.7289971 169.336542,52.3674877 C169.716791,52.0229242 169.915428,51.5258489 169.92678,50.8762619 C169.915428,50.2040804 169.688415,49.6731137 169.245737,49.2777128 C168.79171,48.9049063 168.269578,48.5659914 167.679341,48.2722651 C167.395573,48.1084562 167.117482,47.9446472 166.856416,47.7751898 C166.583999,47.5887865 166.339959,47.391086 166.11862,47.1820885 C165.647566,46.7753906 165.409201,46.2048836 165.39785,45.4762165 C165.409201,44.532903 165.727021,43.8268301 166.36266,43.3523491 C166.975598,42.894814 167.713393,42.6688707 168.576046,42.6688707 C169.404647,42.7027621 170.210547,42.7310051 171.01077,42.7648965 L171.01077,44.2617711 C170.687276,43.8889646 170.369457,43.6347783 170.062987,43.4879152 C169.745168,43.3749436 169.330867,43.3184577 168.814411,43.3184577 C168.252552,43.3184577 167.792848,43.4540237 167.435301,43.7364528 C167.060728,44.0301792 166.879117,44.4820658 166.879117,45.10341 C166.879117,45.4027849 166.947221,45.6682683 167.08343,45.8998602 C167.213962,46.1258035 167.384223,46.3348011 167.588536,46.5325014 C167.809874,46.7076076 168.059589,46.8770651 168.32633,47.040874 C168.593073,47.1877371 168.871164,47.3458974 169.160607,47.5097063 C169.444375,47.6509209 169.722467,47.8147298 169.994883,47.9954844 C170.272976,48.1705906 170.517016,48.3682909 170.727003,48.5942343 C170.936992,48.814529 171.101577,49.0687153 171.232109,49.3624416 C171.345617,49.6674651 171.408045,50.0120286 171.408045,50.4017809 C171.385344,51.4072286 170.988069,52.1867332 170.238923,52.7233486 C169.501129,53.2712611 168.661176,53.5480416 167.719068,53.5593388 C166.793987,53.5367444 165.885931,53.3503413 165.000577,52.9888319 L165.000577,51.266014 Z" id="Fill-24"></path>
                            <path d="M183.951134,47.897764 C183.951134,49.4793672 183.525483,50.8067843 182.679856,51.8800151 C181.828554,52.9758402 180.574302,53.5350499 178.9171,53.5576442 C177.271248,53.5350499 176.062399,53.0210288 175.296227,52.0099325 C174.507353,51.0327276 174.127105,49.8069851 174.144131,48.3157591 C174.144131,46.7341558 174.575458,45.4010902 175.432435,44.3222109 C176.278063,43.2433316 177.52664,42.6897704 179.17249,42.667176 C180.829692,42.6897704 182.038542,43.1924944 182.816065,44.1922936 C183.570886,45.1807955 183.951134,46.4178352 183.951134,47.897764 M182.310959,48.3496506 C182.310959,47.8017381 182.265555,47.2368798 182.180425,46.6607243 C182.078269,46.0902175 181.896658,45.553602 181.641267,45.0565267 C181.414253,44.5594514 181.073732,44.1471048 180.642406,43.8364327 C180.22243,43.5314093 179.683271,43.3788975 179.041958,43.3788975 C177.912563,43.4014918 177.089637,43.8590272 176.57318,44.7458546 C176.448323,44.9435551 176.32914,45.1582012 176.238335,45.3954417 C176.130504,45.6439793 176.045373,45.8981656 175.982944,46.1580004 C175.852411,46.7002644 175.784307,47.2707712 175.784307,47.8695211 C175.767282,49.0048862 175.99997,50.1007114 176.4767,51.1513479 C176.73209,51.6484231 177.072611,52.0494726 177.492587,52.354496 C177.906888,52.6821139 178.417669,52.8459228 179.041958,52.8459228 C179.615167,52.8459228 180.114599,52.7160054 180.534575,52.4561705 C180.948874,52.2076329 181.289396,51.8856637 181.550462,51.4789656 C182.055568,50.6090839 182.310959,49.5697446 182.310959,48.3496506" id="Fill-26"></path>
                            <path d="M193.516368,51.7941566 C193.862564,52.3025291 194.305241,52.7996044 194.8444,53.2966797 L193.55042,53.2966797 C193.226925,53.2966797 192.965859,53.2063024 192.767222,53.0368448 C192.568584,52.8786846 192.386973,52.6640384 192.216713,52.398555 L190.287094,49.5742634 C189.9863,49.0941339 189.736585,48.7552189 189.543623,48.5462213 C189.344986,48.3654667 189.027167,48.2581436 188.59584,48.2355493 L188.59584,51.1671639 C188.58449,51.5343217 188.601516,51.9071282 188.646918,52.2912319 C188.686646,52.669687 188.783127,53.0086019 188.942036,53.2966797 L186.745677,53.2966797 C186.978365,52.9125761 187.108899,52.5397696 187.14295,52.1613146 C187.165651,51.7828594 187.177003,51.4157016 187.177003,51.0654894 L187.177003,45.055397 C187.177003,44.6769419 187.165651,44.2928383 187.14295,43.9143833 C187.097548,43.5359281 186.995391,43.2083104 186.825132,42.9202326 C188.158838,42.8863411 189.435792,42.8355039 190.655991,42.7620722 C191.467566,42.7733695 192.080504,42.9767185 192.494804,43.3664706 C192.897754,43.76752 193.102067,44.2928383 193.102067,44.9367768 C193.090717,45.6936869 192.846677,46.3093825 192.358597,46.7951606 C191.898893,47.2809387 191.36541,47.6424481 190.763824,47.8853371 L193.516368,51.7941566 Z M188.59584,47.6085566 C188.83988,47.6367994 189.078244,47.6537452 189.310934,47.6537452 C190.883006,47.6424481 191.67188,46.8459978 191.68323,45.2643945 C191.68323,44.8520479 191.637827,44.5300788 191.541346,44.2871897 C191.43919,44.0499492 191.274605,43.863546 191.064617,43.7392771 C190.87733,43.6037112 190.63329,43.5189823 190.355198,43.4737937 C190.065755,43.4342536 189.74226,43.4116593 189.373363,43.4116593 L188.629892,43.4116593 C188.607191,43.6601969 188.59584,43.9200318 188.59584,44.1911638 L188.59584,47.6085566 Z" id="Fill-28"></path>
                            <path d="M198.944271,53.2955499 C199.120207,53.0074723 199.222364,52.6685572 199.267766,52.2844536 C199.284792,51.9059986 199.296143,51.5331921 199.296143,51.1660342 L199.296143,43.7324988 L197.196264,43.7324988 C197.026003,43.7324988 196.844392,43.743796 196.651431,43.7776875 C196.458468,43.8228761 196.265506,43.9245506 196.061194,44.0883595 L196.379013,42.9191029 L204.335853,42.9191029 C204.193969,43.2467207 203.938578,43.4613668 203.564006,43.5630413 C203.183757,43.6873102 202.81486,43.7381474 202.462987,43.7324988 L200.71498,43.7324988 L200.71498,51.1660342 C200.703629,51.5331921 200.720655,51.9059986 200.771734,52.2844536 C200.811462,52.6685572 200.907942,53.0074723 201.061177,53.2955499 L198.944271,53.2955499 Z" id="Fill-30"></path>
                            <path d="M206.298388,51.266014 C206.428922,51.429823 206.570806,51.5992804 206.72404,51.7856837 C206.882949,51.9777356 207.064561,52.1641388 207.280224,52.3335963 C207.694524,52.7064028 208.307463,52.8984546 209.119037,52.9097517 C209.743326,52.9097517 210.248432,52.7289971 210.634355,52.3674877 C211.014604,52.0229242 211.213241,51.5258489 211.224591,50.8762619 C211.213241,50.2040804 210.986227,49.6731137 210.543549,49.2777128 C210.089522,48.9049063 209.561715,48.5659914 208.971479,48.2722651 C208.68771,48.1084562 208.415294,47.9446472 208.154228,47.7751898 C207.881811,47.5887865 207.63777,47.391086 207.410757,47.1820885 C206.945378,46.7753906 206.707013,46.2048836 206.695663,45.4762165 C206.707013,44.532903 207.024833,43.8268301 207.654797,43.3523491 C208.267735,42.894814 209.011205,42.6688707 209.873858,42.6688707 C210.696784,42.7027621 211.508359,42.7310051 212.308583,42.7648965 L212.308583,44.2617711 C211.979412,43.8889646 211.667269,43.6347783 211.3608,43.4879152 C211.04298,43.3749436 210.623004,43.3184577 210.112223,43.3184577 C209.544688,43.3184577 209.084985,43.4540237 208.733114,43.7364528 C208.35854,44.0301792 208.176929,44.4820658 208.176929,45.10341 C208.176929,45.4027849 208.250709,45.6682683 208.381241,45.8998602 C208.511775,46.1258035 208.67636,46.3348011 208.886347,46.5325014 C209.107686,46.7076076 209.357402,46.8770651 209.629818,47.040874 C209.890884,47.1877371 210.168977,47.3458974 210.452744,47.5097063 C210.742187,47.6509209 211.014604,47.8147298 211.292695,47.9954844 C211.565113,48.1705906 211.814827,48.3682909 212.024816,48.5942343 C212.229128,48.814529 212.399388,49.0687153 212.529922,49.3624416 C212.643428,49.6674651 212.705857,50.0120286 212.705857,50.4017809 C212.683156,51.4072286 212.291557,52.1867332 211.53106,52.7233486 C210.79894,53.2712611 209.953313,53.5480416 209.016881,53.5593388 C208.086124,53.5367444 207.183743,53.3503413 206.298388,52.9888319 L206.298388,51.266014 Z" id="Fill-32"></path>
                            <path d="M29.3438438,0.365502281 C28.8784651,1.2297355 28.6173991,2.21823753 28.5606456,3.31406264 C28.5038921,4.42683351 28.4755154,5.54525296 28.4755154,6.66932099 C28.3903852,12.0580692 28.4982167,17.4581147 28.8160362,22.8751059 C28.9408939,23.8410135 29.088453,24.8295155 29.2587136,25.8406119 C29.3949219,26.8291139 29.7013908,27.7724274 30.1667693,28.6818493 L23.8274045,28.6818493 C24.2019775,27.5238897 24.4403423,26.2247155 24.5197971,24.7730298 C24.5765506,23.3156953 24.6049273,21.9543867 24.6049273,20.677807 L24.6049273,5.93500519 L24.6049273,5.27976955 C24.5765506,5.0651234 24.468719,4.95780032 24.2871078,4.95780032 C24.0317171,4.98604323 23.8501059,5.21198656 23.7422743,5.6299817 L14.0601288,29.1167901 L5.85357416,7.31890804 C5.65493694,6.64107808 5.46765043,6.07621977 5.28603925,5.6299817 C5.08740204,5.21198656 4.89444017,4.98604323 4.69580295,4.95780032 C4.50851644,4.95780032 4.40636016,5.11031206 4.37798341,5.41533555 C4.32122992,5.7316562 4.29285318,6.07057119 4.29285318,6.43208051 L4.25312573,20.8698588 C4.22474899,22.6096224 4.26447643,24.1460371 4.37798341,25.4903998 C4.50284109,26.8517084 4.77525784,27.913642 5.19523367,28.6818493 L0.0930948981,28.6818493 L0.479018632,28.0943966 C0.910345157,27.4448095 1.24519075,26.5918735 1.46652936,25.5355884 C1.69354332,24.4397634 1.87515449,23.2253179 2.00001217,21.897901 C2.17027264,19.1357438 2.25540288,16.4865584 2.25540288,13.944696 L2.25540288,2.84523025 C2.25540288,2.25212902 2.21000008,1.77764805 2.12486984,1.39919298 C2.01136286,1.01508933 1.69354332,0.670525767 1.17141121,0.365502281 L6.52326534,0.365502281 C6.80135745,0.365502281 7.07944955,0.399393779 7.34619095,0.472825359 C7.60158165,0.563202688 7.76616678,0.749605929 7.85129701,1.03768367 L14.2360646,20.3953779 C14.3495716,20.7229956 14.4687539,21.0393164 14.5936116,21.327394 C14.6787418,21.6606604 14.7922489,21.8244694 14.9284572,21.8244694 C15.1270944,21.8244694 15.2916796,21.7171463 15.4165373,21.4968515 C15.5016675,21.327394 15.6038237,21.0732078 15.7116554,20.7399414 L23.1747394,2.22388611 C23.3847273,1.73245939 23.6003906,1.2918699 23.8274045,0.907766256 C24.0771199,0.591445604 24.4516929,0.410690945 24.9454483,0.365502281 L29.3438438,0.365502281 Z" id="Fill-34"></path>
                            <path d="M38.347785,6.17902398 C38.347785,5.1396847 38.3194083,4.105994 38.2626548,3.06665471 C38.1548231,2.04426117 37.8597049,1.14613646 37.3943264,0.366631997 L43.1661563,0.366631997 C42.7461805,1.14613646 42.4737637,2.04990975 42.348906,3.07795187 C42.2297237,4.11164257 42.1899963,5.15098186 42.2183731,6.19596973 L42.2183731,22.870587 C42.1899963,23.8703862 42.2297237,24.8871311 42.348906,25.9264704 C42.4737637,26.9658097 42.7461805,27.8865287 43.1661563,28.6773304 L37.3943264,28.6773304 C37.8597049,27.8865287 38.1548231,26.9714583 38.2626548,25.9377675 C38.3194083,24.8984282 38.347785,23.8816834 38.347785,22.8875327 L38.347785,6.17902398 Z" id="Fill-36"></path>
                            <path d="M52.2858746,6.17394026 C52.2858746,5.14024955 52.2574979,4.10655885 52.2064198,3.06721957 C52.0872374,2.04482603 51.7977947,1.14670132 51.3267406,0.367196855 L57.121272,0.367196855 C56.6785948,1.14670132 56.4005027,2.05047462 56.2869957,3.07851673 C56.1564627,4.11220744 56.1167352,5.15154672 56.1564627,6.19653458 L56.1564627,26.9042402 L59.4368144,26.9042402 C60.0384015,26.9042402 60.6456637,26.8647001 61.2472507,26.7743227 C61.8261364,26.7178369 62.3879959,26.5992167 62.9385048,26.4297592 C64.0622238,26.0964928 65.1632416,25.4073657 66.2302072,24.3680264 L65.4129569,28.5479779 C64.5389531,28.6383552 63.6592741,28.6778953 62.7739196,28.6778953 L50.8216346,28.6778953 C51.1621556,28.2034143 51.4345723,27.5086386 51.6275341,26.5992167 C51.8431974,25.7293348 51.9907565,24.7860215 52.0758867,23.7579793 C52.2177705,21.5324377 52.2858746,19.8152684 52.2858746,18.600823 L52.2858746,6.17394026 Z" id="Fill-38"></path>
                            <path d="M73.4526564,6.17394026 C73.4526564,5.14024955 73.4186043,4.10655885 73.3618508,3.06721957 C73.2540191,2.04482603 72.958901,1.14670132 72.487847,0.367196855 L78.2880537,0.367196855 C77.8453765,1.14670132 77.5672844,2.05047462 77.4537774,3.07851673 C77.3175691,4.11220744 77.2778416,5.15154672 77.3232444,6.19653458 L77.3232444,26.9042402 L80.5979207,26.9042402 C81.1995078,26.9042402 81.8067701,26.8647001 82.4083571,26.7743227 C82.9872427,26.7178369 83.5547777,26.5992167 84.0996111,26.4297592 C85.2290056,26.0964928 86.3300233,25.4073657 87.3969889,24.3680264 L86.5740633,28.5479779 C85.7000596,28.6383552 84.8203804,28.6778953 83.9407014,28.6778953 L71.982741,28.6778953 C72.3232619,28.2034143 72.5956786,27.5086386 72.7943159,26.5992167 C73.0043038,25.7293348 73.1518629,24.7860215 73.2369931,23.7579793 C73.3788768,21.5324377 73.4526564,19.8152684 73.4526564,18.600823 L73.4526564,6.17394026 Z" id="Fill-40"></path>
                            <path d="M98.0053513,26.9042402 L102.965606,26.9042402 C104.333365,26.9042402 105.672748,26.7121883 107.00078,26.3224361 C108.294759,25.943981 109.446855,25.2943939 110.462742,24.3680264 L109.679544,28.463249 C108.499072,28.6044636 107.114286,28.6778953 105.525189,28.6778953 L93.0450962,28.6778953 C93.5047995,27.8870936 93.822619,26.9663746 93.9872042,25.9270353 C94.0893605,24.8933446 94.1347633,23.870951 94.1347633,22.8711518 L94.1347633,6.19653458 C94.1347633,5.15154672 94.1063865,4.11220744 94.049633,3.07851673 C93.9247753,2.04482603 93.6410078,1.14670132 93.1926553,0.367196855 L108.243681,0.367196855 L108.413941,3.78458961 C107.670471,3.14065114 106.745389,2.68311591 105.650046,2.4232811 C104.537678,2.23122928 103.328829,2.14085194 102.017823,2.14085194 L98.0053513,2.14085194 L98.0053513,12.7601881 C101.410561,12.7884311 104.798744,12.681108 108.164226,12.4382189 C107.823705,13.0256715 107.290222,13.5001525 106.558102,13.8616618 C105.814632,14.1949282 104.991706,14.4491144 104.106351,14.618572 C102.239162,14.8784068 100.559258,14.997027 99.0836676,14.9631355 L98.0053513,14.9631355 L98.0053513,26.9042402 Z" id="Fill-42"></path>
                            <path d="M116.248193,28.6795898 C116.991664,26.7873144 117.434341,24.6577986 117.57055,22.2910423 C117.701082,19.9186375 117.763511,17.7326357 117.763511,15.7273888 L117.763511,6.28295791 C117.763511,5.12499838 117.701082,4.02917327 117.57055,2.98983398 C117.405964,1.93354895 117.003015,1.05801857 116.373051,0.363242847 L120.737395,0.363242847 C121.180071,0.363242847 121.509242,0.402782929 121.736256,0.476214509 C121.985971,0.53270034 122.230011,0.73604933 122.474052,1.0806129 C123.02456,1.82057728 123.807759,3.04631981 124.834996,4.76913765 C125.87926,6.49195548 126.75894,7.91539842 127.474033,9.03946646 L136.083539,21.5115379 C136.253799,21.754427 136.424059,21.9803702 136.588645,22.1837192 C136.741878,22.4435541 136.878087,22.5734715 136.985918,22.5734715 C137.161854,22.5734715 137.258336,22.471797 137.286712,22.268448 L137.286712,21.726184 L137.286712,6.06831175 C137.286712,4.5488429 137.201582,3.36264046 137.031321,2.515353 C136.832685,1.6454712 136.577293,0.928101155 136.248124,0.363242847 L140.708948,0.363242847 C140.215192,1.3799878 139.886022,2.44757 139.715761,3.57163803 C139.5228,4.70135464 139.420644,5.83671985 139.420644,6.99467938 L139.420644,24.7368788 C139.420644,26.1829161 139.44902,27.5498732 139.505773,28.8546959 L136.429735,28.8546959 L120.629562,5.69550527 C120.487679,5.40742754 120.328769,5.24926721 120.141483,5.21537571 C119.971223,5.24926721 119.891768,5.46391337 119.891768,5.87061135 L119.891768,17.3033435 C119.857715,19.1165387 119.920144,21.0257598 120.062028,23.0366553 C120.141483,25.0757938 120.521731,26.9567719 121.180071,28.6795898 L116.248193,28.6795898 Z" id="Fill-44"></path>
                            <path d="M147.313351,28.6795898 C148.062497,26.7873144 148.4995,24.6577986 148.641383,22.2910423 C148.766241,19.9186375 148.828669,17.7326357 148.828669,15.7273888 L148.828669,6.28295791 C148.828669,5.12499838 148.766241,4.02917327 148.641383,2.98983398 C148.471122,1.93354895 148.073848,1.05801857 147.443884,0.363242847 L151.808227,0.363242847 C152.245229,0.363242847 152.580075,0.402782929 152.801414,0.476214509 C153.056804,0.53270034 153.300844,0.73604933 153.539209,1.0806129 C154.089717,1.82057728 154.878591,3.04631981 155.900154,4.76913765 C156.944419,6.49195548 157.824097,7.91539842 158.539192,9.03946646 L167.148696,21.5115379 C167.318957,21.754427 167.489217,21.9803702 167.659477,22.1837192 C167.807037,22.4435541 167.943244,22.5734715 168.056752,22.5734715 C168.227013,22.5734715 168.323493,22.471797 168.35187,22.268448 L168.35187,21.726184 L168.35187,6.06831175 C168.35187,4.5488429 168.26674,3.36264046 168.102154,2.515353 C167.897842,1.6454712 167.642452,0.928101155 167.313281,0.363242847 L171.774105,0.363242847 C171.286025,1.3799878 170.951179,2.44757 170.786594,3.57163803 C170.587957,4.70135464 170.485801,5.83671985 170.485801,6.99467938 L170.485801,24.7368788 C170.485801,26.1829161 170.514178,27.5498732 170.570932,28.8546959 L167.494892,28.8546959 L151.694721,5.69550527 C151.552837,5.40742754 151.393927,5.24926721 151.212316,5.21537571 C151.042055,5.24926721 150.956925,5.46391337 150.956925,5.87061135 L150.956925,17.3033435 C150.928549,19.1165387 150.985302,21.0257598 151.127186,23.0366553 C151.212316,25.0757938 151.586888,26.9567719 152.245229,28.6795898 L147.313351,28.6795898 Z" id="Fill-46"></path>
                            <path d="M180.331397,6.17902398 C180.331397,5.1396847 180.303019,4.105994 180.246267,3.06665471 C180.13276,2.04426117 179.843317,1.14613646 179.377939,0.366631997 L185.149768,0.366631997 C184.729793,1.14613646 184.4517,2.04990975 184.332518,3.07795187 C184.213335,4.11164257 184.173608,5.15098186 184.201984,6.19596973 L184.201984,22.870587 C184.173608,23.8703862 184.213335,24.8871311 184.332518,25.9264704 C184.4517,26.9658097 184.729793,27.8865287 185.149768,28.6773304 L179.377939,28.6773304 C179.843317,27.8865287 180.13276,26.9714583 180.246267,25.9377675 C180.303019,24.8984282 180.331397,23.8816834 180.331397,22.8875327 L180.331397,6.17902398 Z" id="Fill-48"></path>
                            <path d="M216.125822,0.365502281 C215.705848,1.14500674 215.439105,2.06572579 215.331274,3.11636223 C215.206417,4.15570153 215.155338,5.1950408 215.183715,6.24002868 L215.183715,22.9202945 C215.155338,23.9144452 215.206417,24.9368387 215.331274,25.976178 C215.439105,27.0155173 215.705848,27.913642 216.125822,28.6818493 L211.000983,28.9416841 L211.171243,26.0326637 C211.171243,25.9196921 211.103139,25.8632063 210.961256,25.8632063 C210.876125,25.8914491 210.70019,26.0496095 210.433448,26.3376873 C209.633224,27.0833002 208.560583,27.7667788 207.215525,28.3824743 C205.819389,29.0320614 204.12246,29.3653278 202.113386,29.3935707 C196.846663,29.483948 194.026014,26.9703285 193.662792,21.8583609 L193.662792,6.24002868 C193.662792,5.1950408 193.628739,4.15570153 193.55496,3.11636223 C193.441453,2.06572579 193.157685,1.14500674 192.697982,0.365502281 L198.481163,0.365502281 C198.044161,1.14500674 197.771744,2.06572579 197.658237,3.12201082 C197.54473,4.1613501 197.499327,5.20068939 197.53338,6.24567726 L197.53338,19.2091755 C197.470951,24.2081715 199.780818,26.7556824 204.45163,26.8404111 C206.931757,26.8404111 208.657064,26.0778524 209.627549,24.5414379 C210.637761,23.021969 211.148542,20.948939 211.148542,18.3166993 C211.227997,16.59953 211.284751,14.8936579 211.313127,13.2047316 L211.313127,6.24567726 C211.313127,5.20068939 211.284751,4.1613501 211.227997,3.12201082 C211.114489,2.06572579 210.830722,1.14500674 210.365344,0.365502281 L216.125822,0.365502281 Z" id="Fill-50"></path>
                            <path d="M252.21026,0.365502281 C251.750556,1.2297355 251.48949,2.21823753 251.427061,3.31406264 C251.375984,4.42683351 251.341931,5.54525296 251.341931,6.66932099 C251.256801,12.0580692 251.370307,17.4581147 251.682452,22.8751059 C251.80731,23.8410135 251.954868,24.8295155 252.12513,25.8406119 C252.267013,26.8291139 252.567807,27.7724274 253.033185,28.6818493 L246.693821,28.6818493 C247.074069,27.5238897 247.306758,26.2247155 247.386213,24.7730298 C247.448641,23.3156953 247.471343,21.9543867 247.471343,20.677807 L247.471343,5.93500519 L247.471343,5.27976955 C247.448641,5.0651234 247.34081,4.95780032 247.159199,4.95780032 C246.903808,4.98604323 246.722197,5.21198656 246.608691,5.6299817 L236.926545,29.1167901 L228.71999,7.31890804 C228.527028,6.64107808 228.334067,6.07621977 228.152456,5.6299817 C227.953818,5.21198656 227.760856,4.98604323 227.562218,4.95780032 C227.380607,4.95780032 227.272776,5.11031206 227.2444,5.41533555 C227.187646,5.7316562 227.164945,6.07057119 227.164945,6.43208051 L227.119541,20.8698588 C227.091165,22.6096224 227.130892,24.1460371 227.2444,25.4903998 C227.369257,26.8517084 227.647349,27.913642 228.067324,28.6818493 L222.965186,28.6818493 L223.345435,28.0943966 C223.782436,27.4448095 224.111606,26.5918735 224.338621,25.5355884 C224.565635,24.4397634 224.741571,23.2253179 224.866428,21.897901 C225.036688,19.1357438 225.116143,16.4865584 225.116143,13.944696 L225.116143,2.84523025 C225.116143,2.25212902 225.082092,1.77764805 224.996961,1.39919298 C224.883454,1.01508933 224.559959,0.670525767 224.043502,0.365502281 L229.395356,0.365502281 C229.673449,0.365502281 229.945865,0.399393779 230.218282,0.472825359 C230.467997,0.563202688 230.632582,0.749605929 230.717713,1.03768367 L237.102481,20.3953779 C237.221663,20.7229956 237.340846,21.0393164 237.460028,21.327394 C237.550833,21.6606604 237.658664,21.8244694 237.800548,21.8244694 C237.999185,21.8244694 238.158095,21.7171463 238.282953,21.4968515 C238.373759,21.327394 238.47024,21.0732078 238.578071,20.7399414 L246.041155,2.22388611 C246.251143,1.73245939 246.472482,1.2918699 246.693821,0.907766256 C246.943535,0.591445604 247.318109,0.410690945 247.811864,0.365502281 L252.21026,0.365502281 Z" id="Fill-52"></path>
                        </g>
                        <g id="Group" transform="translate(0.000000, 175.000000)">
                            <path d="M101.118304,13.053726 C100.340946,13.2796693 99.5579148,13.5169099 98.7635351,13.6694216 C98.4684797,13.7259075 98.0088743,13.6581244 97.8443242,13.460424 C97.6741,13.257075 97.7024707,12.8164855 97.7705604,12.511462 C97.9464587,11.7714977 98.2471882,11.0541276 98.3947159,10.3085147 C98.4457831,10.059977 98.2585366,9.65327903 98.0485933,9.50076729 C97.8953915,9.38779563 97.515224,9.54595595 97.2542135,9.63068469 C97.1293824,9.6645762 97.0329219,9.7944936 96.9364616,9.8961681 C95.8243299,10.9863446 94.7235466,12.0934669 93.5943924,13.1610492 C93.3957975,13.3474523 93.0383266,13.3700467 92.7546195,13.4717211 C92.6638332,13.2005893 92.5276539,12.9351058 92.4992832,12.6583252 C92.4822607,12.4436791 92.6014176,12.2177357 92.6695074,11.997441 C92.7829902,11.6415803 92.9702369,11.2913681 92.9872592,10.9355074 C93.0042817,10.6530782 92.8964731,10.2350831 92.6978781,10.1108143 C92.493609,9.98654543 92.0850709,10.0938685 91.8183863,10.2124888 C91.6311396,10.2915689 91.5346791,10.5570523 91.3814773,10.7321584 C90.6268165,11.5794459 89.8948523,12.4493276 89.0947983,13.2514265 C88.8167655,13.5225584 88.3741824,13.6920159 87.9769926,13.7654474 C87.3187922,13.8953649 86.8535126,13.353101 87.0123886,12.7091625 C87.108849,12.3250588 87.2677249,11.9579009 87.3755336,11.5794459 C87.5968251,10.7999414 87.3414888,10.263326 86.5641314,10.1051657 C85.9229534,9.96959968 85.2136858,9.86227661 84.5838561,9.99219401 C83.857566,10.1390572 83.1653208,10.5118637 82.5014463,10.8677244 C81.2304386,11.5568515 80.1183069,12.3984904 79.7097688,13.906662 C79.6189825,14.2286313 79.2444892,14.6014378 78.9210631,14.7087609 C77.0372483,15.3357536 75.5279266,14.2455771 75.6016905,12.2968159 C75.6357354,11.3535025 75.8797235,10.4214863 75.9534873,9.47817295 C75.9761838,9.20139238 75.8286561,8.81164015 75.6187129,8.65347982 C75.4711852,8.54050816 75.0059057,8.63088549 74.8356814,8.78904582 C74.455514,9.15055514 74.1604586,9.60244178 73.854055,10.0317341 C73.1958546,10.9298588 72.5830474,11.861875 71.885128,12.7261083 C71.7205779,12.9294572 71.283669,12.9125115 70.9715912,12.9972402 C70.9035016,12.7261083 70.7219291,12.4323818 70.7843446,12.1951414 C71.0680516,11.1219106 71.3233881,10.0260855 71.765971,9.02063772 C72.5716991,7.19614539 73.5079324,5.42813888 74.3817502,3.63753806 C74.654109,3.07267974 74.9605125,2.51347002 75.1364109,1.9203688 C75.2158489,1.64923681 75.0683213,1.26513317 74.9094453,1.00529834 C74.8640521,0.926218178 74.3533795,1.01659551 74.1604586,1.16345867 C73.8256843,1.43459066 73.4965841,1.76785706 73.292315,2.14631213 C72.6170923,3.3551089 71.9815884,4.59214859 71.3744553,5.84048545 C70.9715912,6.64823283 70.6254686,6.87982473 69.7289543,6.78944741 C69.1047988,6.73296158 68.4806433,6.6934215 67.8564877,6.64258424 C67.8508136,6.65953 67.8508136,6.67647575 67.8508136,6.6934215 C67.70896,6.6934215 67.5671065,6.70471866 67.4309272,6.6934215 C67.0110407,6.67082716 66.5911543,6.63693567 66.1712678,6.60869275 C65.2634052,6.53526117 64.9910464,6.04948303 65.3995845,5.24173565 C65.7173365,4.62604009 66.0691332,4.0216417 66.3528403,3.38900039 C66.5798059,2.88062792 66.8408164,2.23104086 66.1882902,1.90907164 C65.6095277,1.62099389 65.1953154,2.14631213 64.8889118,2.5869016 C64.2420597,3.51891781 63.6235784,4.46787976 63.0277936,5.43378747 C62.5284691,6.24153485 61.9440326,6.75555591 60.8886423,6.68777291 C59.7765106,6.60869275 58.6530307,6.71601583 57.5352248,6.68777291 C56.93944,6.67647575 56.4741603,6.89677049 56.1734308,7.36560289 C55.9691618,7.68192354 55.7081513,8.15075593 55.81596,8.42188792 C56.0259032,8.96980048 56.5082052,9.28612113 57.2117988,9.18444663 C58.2217959,9.03193489 59.2431413,8.93026039 60.2644868,8.85682882 C61.1156079,8.80034299 61.439034,9.21833813 61.121282,10.0204369 C60.7411146,10.9863446 60.3722954,11.9748467 59.8162296,12.8447284 C59.2204448,13.7710961 58.3976942,14.5506005 57.7111232,15.4204823 C57.421742,15.7932888 57.0472486,16.2056354 57.5919662,16.6914135 C58.1253355,17.1658945 58.5395477,16.8665197 58.9197153,16.4880645 C59.3339276,16.0813666 59.7254433,15.6464257 60.1112849,15.2114848 C60.8489232,14.3698459 61.0475183,14.3359544 61.9894256,14.8951641 C62.8802659,15.4374281 63.850544,15.5842913 64.7981256,15.1606476 C65.700314,14.7539495 66.5344129,14.1947398 67.4139047,13.7372046 C67.6295221,13.6298815 67.9699706,13.59599 68.1685655,13.6920159 C68.3331156,13.7767447 68.4239018,14.098714 68.4522726,14.3246572 C68.4806433,14.5167091 68.3160932,14.7426523 68.3444639,14.9347042 C68.4068794,15.3188078 68.4352501,15.7989374 68.673564,16.0361779 C68.8835073,16.2395269 69.4055283,16.2734184 69.7346285,16.1830411 C71.0169844,15.8384775 71.8000159,14.8104354 72.6568112,13.8953649 C73.2015288,13.3135609 73.6611343,13.4208839 74.1037172,14.0874167 C74.455514,14.6127349 74.8697263,15.1549989 75.380399,15.5052111 C76.5152272,16.2903642 77.8089314,16.3468499 79.1366805,16.0418265 C79.6813981,15.9175577 80.2544864,15.7311544 80.7878556,15.7989374 C82.0645374,15.9570978 83.1142535,15.5391026 84.1015541,14.8047867 C84.5100922,14.4997633 84.9867202,14.4093859 85.3895841,14.7652468 C86.5187382,15.7706945 87.6705889,15.6068856 88.8621586,14.9177585 C89.5487297,14.5223576 89.9118747,14.6409779 90.1955818,15.3922395 C90.4111991,15.9570978 90.808389,16.1773924 91.3474324,15.9909892 C91.8864759,15.8045859 92.4311934,15.5616969 92.8964731,15.2340791 C93.4014716,14.8725698 93.8156839,14.381143 94.2752893,13.9574994 C94.9221415,13.3643981 95.3930952,13.4943156 95.6143867,14.3303058 C95.8583748,15.2284305 96.6527545,15.9288548 97.5889879,15.8949633 C98.4855022,15.8554233 99.3933648,15.7142087 100.278531,15.5278054 C100.902686,15.397888 101.526842,15.1775932 102.105604,14.9008127 C102.570884,14.6748694 102.973748,14.2794685 102.735434,13.6694216 C102.525491,13.1384547 101.719763,12.87862 101.118304,13.053726 M69.9842906,8.80034299 C68.5260364,10.8903187 67.1131752,13.0311317 64.3668909,13.663773 C63.3058264,13.906662 62.4206604,13.624233 62.5341432,12.2233844 C62.6306036,10.9524531 63.1582987,9.86227661 63.8164991,8.82293731 C64.1909925,8.2298361 64.7924515,8.07732436 65.69464,8.22418751 C66.6932887,8.10556727 67.907555,7.94175835 69.1274954,7.81748953 C69.3714834,7.78924661 69.7346285,7.84008387 69.8594596,7.99824418 C70.0126613,8.19029601 70.1034476,8.63088549 69.9842906,8.80034299 M84.7937993,12.6300823 C84.3058232,13.0650232 83.7724539,13.4943156 83.1766691,13.7541503 C82.9440293,13.8614734 82.4106601,13.6072872 82.212065,13.3587495 C82.0645374,13.1836435 82.1212788,12.6131365 82.3028513,12.4493276 C82.8191982,11.9861438 83.4376795,11.6415803 84.0731834,11.212288 C84.4306543,11.5003657 84.7313838,11.6415803 84.8391924,11.8731722 C84.941327,12.0765211 84.9356528,12.5001649 84.7937993,12.6300823" id="Fill-54" fill="#4E4E4E" fill-rule="nonzero"></path>
                            <g id="Group-58" transform="translate(224.632410, 0.643730)">
                                <g id="Fill-56-Clipped">
                                    <mask id="mask-2" fill="white">
                                        <use xlink:href="#path-1"></use>
                                    </mask>
                                    <g id="path-1"></g>
                                    <path d="M34.7280471,12.0755994 C33.8882742,12.3580284 33.0825462,12.7251864 32.2427732,12.9850213 C30.9433949,13.3860706 29.6099717,13.4030164 28.293571,13.1036414 C28.0268863,13.041507 27.8169431,12.7364836 27.5786292,12.5387831 C27.737505,12.3467313 27.8793587,12.120788 28.0722794,11.9626276 C28.6510418,11.4994439 29.2808715,11.0983945 29.8369373,10.6069677 C30.3532842,10.1494325 30.4270481,9.5167912 30.2284531,8.87285273 C30.0298582,8.22891426 29.5759269,7.90694502 28.9063781,7.77702761 C27.9361001,7.59627295 27.1473944,7.88435069 26.5516096,8.64126082 C25.683466,9.73143735 24.6961654,10.6691021 23.3513939,11.1379345 C23.0790351,11.2339604 22.6648229,11.2904463 22.471902,11.1492317 C22.2733071,11.0136657 22.1995432,10.6069677 22.1995432,10.31889 C22.2052174,9.97997501 22.4378571,9.64106003 22.4151606,9.30779363 C22.3981382,9.00841872 22.2392622,8.62996365 22.0122966,8.45485758 C21.8761172,8.3475345 21.4392084,8.50569483 21.2179168,8.66385516 C20.9909512,8.83331265 20.8490976,9.12703896 20.6845475,9.3812252 C19.9298867,10.5165904 19.135507,11.6237127 17.72832,11.9965192 C17.3992198,12.0812479 16.8545022,12.024762 16.6786039,11.8101159 C16.5083795,11.6011184 16.5821434,11.0814487 16.7126486,10.7651281 C16.8771988,10.3640787 17.206299,10.0421094 17.4673094,9.68060011 C17.7964096,9.21741629 17.6772526,8.7146924 17.2970852,8.44356041 C17.0701196,8.2797515 16.5821434,8.39272316 16.2360208,8.47745191 C16.0374259,8.52264058 15.8955724,8.7824754 15.7083257,8.91239281 C14.8118114,9.52243978 13.9777126,10.2906471 12.9960862,10.6973451 C11.3676076,11.3638779 9.65401695,11.8553046 7.94610044,12.3071912 C6.17576837,12.7760236 4.36571731,12.8607523 2.57268868,12.3184885 C1.82370204,12.0925451 1.33005175,11.3808236 1.49460185,10.6803993 C1.77830891,9.4490082 3.96852743,7.5793272 5.56863526,7.86740494 C7.18576551,8.16113126 8.84261476,8.33623733 10.4937899,8.05945676 C10.8512607,8.00297093 11.2257541,7.86175636 11.5151353,7.65275878 C11.7591234,7.47200412 12.0995718,7.02011747 12.0314822,6.89020007 C11.8272131,6.52304217 11.4583939,6.02596686 11.1179454,6.00337252 C10.0114879,5.9129952 8.89368203,5.99772395 7.7758762,6.03726403 C6.94177745,6.0768041 6.10767868,6.20107293 5.27357991,6.19542436 C4.65509852,6.19542436 4.22953793,5.77178062 4.04229126,5.21821948 C3.84369633,4.64206401 4.31465005,3.93034254 5.02959184,3.55188747 C5.56296112,3.26945831 5.95447686,3.45021297 6.32329605,3.86820812 C6.482172,4.04896278 6.72048593,4.20712311 6.95312573,4.26360894 C8.51918871,4.67030692 10.1249707,4.19017736 11.0158109,2.73284293 C11.38463,2.12844454 11.2768214,1.60312631 10.7434521,1.12299675 C10.1136224,0.558138442 9.44407373,0.620272855 8.61564911,0.705001602 C6.9077326,0.880107676 5.45515244,1.55793765 4.0195947,2.39957653 C2.67482323,3.18472957 2.31167818,5.00357332 2.73723878,5.8791037 C3.2479115,6.90149723 3.2081925,7.1161434 2.23791435,7.75443328 C1.43786044,8.2797515 0.853423887,8.95193289 0.388144301,9.78792318 C-0.355168198,11.1379345 0.155504514,12.8833468 1.52297255,13.6063653 C2.86206988,14.3124382 4.28627934,14.4084642 5.7388595,14.2446552 C8.20711094,13.962226 10.6015985,13.4030164 12.8769292,12.3862714 C13.4273209,12.1433823 13.8699039,12.3015427 14.19333,12.8099151 C14.8912493,13.9057403 15.9125947,14.3124382 17.1779283,13.9396317 C17.6602303,13.7984171 18.0971391,13.4990423 18.5794411,13.3352333 C18.7950585,13.2618018 19.1298329,13.2505046 19.2773605,13.3747734 C19.4305623,13.4990423 19.5326968,13.8662002 19.4532589,14.0413062 C19.2376415,14.5496788 18.9482603,15.0298083 18.6475308,15.4873435 C18.1482065,16.2386051 17.5524215,16.9333808 17.1041644,17.7128852 C16.5424244,18.6957387 16.0374259,19.7181323 15.5891687,20.7574716 C15.1806306,21.7007849 14.9025976,22.6779898 15.2316978,23.7286262 C15.3905738,24.2200529 15.5721463,24.7905598 16.1111897,24.734074 C16.5083795,24.6888853 16.8601764,24.2257015 17.2176473,23.9319752 C17.2914111,23.8641922 17.3027594,23.7173291 17.3481525,23.610006 C18.3694979,21.2714925 19.4362365,18.9555735 20.3951664,16.5888173 C20.9625805,15.18232 21.9612293,14.2841953 23.2379111,13.5781224 C24.4067842,12.934184 24.9741984,12.9793726 26.0295885,13.7645257 C27.0225633,14.5101387 28.0722794,15.1710228 29.4340734,15.18232 C30.2227789,15.0354569 31.0455294,14.9563767 31.8115385,14.7191362 C33.0825462,14.3237354 34.2911383,13.7645257 35.2216974,12.7647265 C35.3522026,12.6235119 35.3351802,12.3354341 35.3919216,12.120788 C35.1706301,12.0981937 34.920968,12.0078164 34.7280471,12.0755994 M27.0849788,10.2737013 C27.0339116,9.86135477 28.1176726,8.85590698 28.4524469,8.98017581 C28.7361539,9.08749888 28.9460972,9.39252236 29.0822766,9.5167912 C28.9914904,10.2567556 28.1176726,11.03626 27.6637413,10.900694 C27.4197532,10.8272625 27.1190237,10.5109418 27.0849788,10.2737013" id="Fill-56" fill="#4E4E4E" fill-rule="nonzero" mask="url(#mask-2)"></path>
                                </g>
                            </g>
                            <path d="M212.58,13.7321209 C211.484891,14.0032529 210.423826,14.4381938 209.243605,14.0484415 C208.596753,13.8337954 208.500292,13.7208237 208.886134,13.1729111 C209.254952,12.6362957 209.720232,12.1279233 209.930176,11.534822 C210.094726,11.0659897 210.123096,10.3373224 209.862085,9.98711028 C209.567031,9.60300664 208.857763,9.29798316 208.358439,9.33187465 C206.809398,9.4504949 205.169571,11.4726876 205.271706,12.997805 C205.322772,13.6812836 205.04474,14.1331703 204.454629,14.3873565 C203.603508,14.7488659 202.763735,15.1103751 201.765086,14.8900804 C200.94801,14.7093258 200.482731,14.4043022 200.562169,13.5909063 C200.681326,12.3256237 200.965033,11.0829354 201.089864,9.81765279 C201.129583,9.44484631 200.965033,8.90258234 200.692673,8.69923335 C200.499753,8.55801877 199.858575,8.73312484 199.620261,8.97036533 C198.712398,9.85719288 197.90667,10.8513435 197.010156,11.7551168 C196.800212,11.9697629 196.386001,11.9810601 196.062575,12.0883832 C196.017182,11.7551168 195.841283,11.3653646 195.949091,11.0942326 C196.896673,8.67099044 197.889647,6.27034263 198.882622,3.8753434 C199.086892,3.38391667 199.206048,2.88684136 198.678353,2.58746647 C198.13931,2.28244297 197.776165,2.71173529 197.441391,3.07889318 C197.384649,3.14667618 197.327907,3.22575635 197.288188,3.3104851 C196.936392,4.0391523 196.595943,4.77911669 196.238473,5.50213533 C195.063925,7.87454022 193.951793,10.2921338 191.943148,12.1222746 C191.154443,12.8339962 190.365737,13.5909063 189.202538,13.6643378 C188.572708,13.7038779 188.130125,13.3536658 188.198214,12.7323217 C188.254956,12.1392204 188.510293,11.5743621 188.595405,10.9812609 C188.782651,9.6820868 189.571356,9.12287707 190.819668,9.00990541 C191.216858,8.97601392 191.602699,8.78396209 191.988541,8.66534185 C191.99989,8.5467216 192.016911,8.42810136 192.02826,8.30383253 C191.693485,8.17391512 191.370059,7.99316046 191.023937,7.92537746 C190.280624,7.78981147 189.991243,7.28143899 190.343039,6.62620336 C190.609725,6.13477663 190.893432,5.65464707 191.182813,5.18016609 C191.477869,4.68873936 191.580003,4.16906972 191.040959,3.83580332 C190.524612,3.51948267 190.127423,3.91488348 189.786974,4.28768997 C189.68484,4.40631021 189.605402,4.55317337 189.531637,4.69438795 C189.202538,5.33267784 188.856415,5.96531913 188.561359,6.62055478 C188.19254,7.43959932 187.625126,7.95362038 186.677545,7.86889163 C185.826424,7.78981147 184.975303,7.61470539 184.124181,7.57516531 C182.824803,7.51867948 181.508402,7.6485969 180.220372,7.50173373 C179.346554,7.40570782 178.926668,7.71637989 178.580545,8.41115561 C178.376276,8.82915075 178.160659,9.26974024 178.580545,9.60865522 C178.932342,9.90238154 179.40897,10.2412965 179.817508,10.2243508 C181.604863,10.139622 183.386543,9.91367871 185.168223,9.77246413 C186.053389,9.69903255 186.456253,10.2808366 186.025019,11.0433953 C185.054741,12.754916 183.897215,14.3082763 182.058794,15.2176982 C181.672952,15.40975 181.321156,15.6921792 181.61621,16.2062003 C181.871547,16.6524383 182.370872,16.7428156 182.813455,16.3982521 C183.607834,15.7882052 184.385191,15.1612123 185.1512,14.5229225 C185.667548,14.0879816 186.04204,14.0936302 186.564062,14.5229225 C186.898836,14.7997031 187.256308,15.0651865 187.647823,15.2572383 C188.981246,15.9181225 190.133097,15.2911298 191.239554,14.6415427 C192.158765,14.1049274 192.408428,14.1388188 192.885055,15.1047266 C193.242526,15.8446909 194.048254,16.1158229 194.581623,15.6752334 C195.602969,14.8335946 196.624315,13.9919557 197.651333,13.1559654 C198.04285,12.8339962 198.559196,13.0034537 198.678353,13.5061776 C198.746443,13.7999039 198.667005,14.1275217 198.76914,14.4043022 C198.950712,14.9070261 199.092566,15.5170732 199.461385,15.8390424 C200.397619,16.6637354 201.538121,16.9800562 202.775083,16.5112237 C203.705642,16.155363 204.630527,15.7769079 205.532716,15.341967 C206.122827,15.0538893 206.639174,15.0482407 207.257655,15.2911298 C208.069058,15.6187476 208.925853,15.9633112 209.782647,16.0254456 C211.099049,16.1271201 212.330338,15.7204221 213.243874,14.69238 C213.431121,14.4833824 213.391401,14.0766844 213.453817,13.7603638 C213.164436,13.7490667 212.852358,13.6643378 212.58,13.7321209 M207.586756,12.3990553 C207.121476,12.3934066 206.860466,12.1335719 206.832094,11.6647395 C206.79805,11.0772868 207.461924,10.3938083 208.31872,10.3768625 C208.449224,10.5576172 208.783999,10.8287492 208.857763,11.1620156 C208.971245,11.6873338 208.188214,12.4047038 207.586756,12.3990553" id="Fill-59" fill="#4E4E4E" fill-rule="nonzero"></path>
                            <path d="M43.9116117,15.0075709 C43.565489,14.8494106 43.0207716,14.7590332 42.759761,14.437064 C42.3852677,13.9738802 42.8845921,13.5615337 43.1512767,13.1661328 C43.5087476,12.6238689 43.9172859,12.092902 44.1442515,11.4941523 C44.2917791,11.1156972 44.2917791,10.5338931 44.0875101,10.2119239 C43.9002634,9.91819757 43.3271751,9.65836276 42.9697042,9.71484859 C41.4036413,9.94644049 39.7751627,11.9742818 39.7694886,13.5671822 C39.7694886,14.3636324 40.1042629,15.0075709 40.7340926,15.4820519 C42.1185831,16.5213912 44.7003173,16.5157426 46.0677854,15.4481603 C46.2550321,15.3069458 46.3117735,15.0019223 46.4309304,14.7703304 C46.1585716,14.7138446 45.8805387,14.5895757 45.6195282,14.6234673 C45.0975072,14.6912502 44.5868345,14.8494106 43.9116117,15.0075709 M41.9426847,12.595626 C41.7100448,12.5560859 41.4036413,12.1663336 41.3695964,11.9064989 C41.3071809,11.4207207 41.9029657,10.833268 42.2604366,10.9857798 C42.5271212,11.0931029 42.7143679,11.3981263 42.8789179,11.5619352 C42.6916714,12.1945765 42.5327954,12.6973004 41.9426847,12.595626" id="Fill-61" fill="#4E4E4E" fill-rule="nonzero"></path>
                            <path d="M166.793651,5.23213305 C165.953879,5.2151873 165.114106,5.29426747 164.274332,5.30556464 C163.264335,5.32251039 162.24299,5.3168618 161.232993,5.28861888 C160.665579,5.27167313 160.46131,4.9158124 160.387546,4.37919701 C160.330805,4.01768769 160.09249,3.68442129 159.939289,3.33420914 C159.593167,3.53755814 159.235696,3.71831279 158.91227,3.9499047 C158.781764,4.05157919 158.74772,4.27187393 158.656933,4.43003426 C158.356203,4.93840673 158.038452,5.48631929 157.374577,5.48631929 C155.626941,5.48631929 153.88498,5.42418487 152.143019,5.39029338 C151.728807,5.37899622 151.291897,5.27167313 150.923078,5.38464479 C150.338642,5.56539945 150.043587,6.23758084 150.168418,6.79679057 C150.310272,7.42378329 151.081954,7.99429018 151.728807,7.98299301 C153.005488,7.96039868 154.28217,7.94910152 155.564526,7.94345293 C156.279467,7.94345293 156.59722,8.38969099 156.307839,9.03362947 C155.235426,11.4173315 151.989817,14.580538 148.47185,14.2529202 C148.193817,14.2246773 147.927132,14.0552198 147.484549,13.8801137 C147.898761,13.592036 148.125727,13.4395242 148.347018,13.2870125 C149.288926,12.6317768 149.913081,11.7675437 150.157069,10.6434756 C150.321619,9.89221409 149.850666,9.33300436 149.09033,9.47421894 C148.670445,9.54765052 148.205164,9.71710802 147.904436,9.99953717 C147.28028,10.5813412 146.593709,11.1913882 146.224889,11.9313526 C145.521297,13.3547955 144.37512,13.9365996 142.911191,14.1399486 C142.610461,14.1794887 142.315407,14.2585688 142.020351,14.309406 C141.589116,14.3828377 141.140859,14.4223778 140.919568,13.9535453 C140.686928,13.4790643 141.044399,13.2192295 141.345128,12.8972603 C141.838778,12.3606448 142.326754,11.7844894 142.667203,11.1461995 C143.058719,10.4175323 142.434564,9.57024485 141.628835,9.71145943 C140.930916,9.83572826 140.187603,10.0277801 139.603166,10.4062351 C138.513731,11.1179566 137.33351,11.8070838 137.197331,13.360444 C137.16896,13.659819 136.703681,13.9930854 136.363232,14.1625429 C135.977391,14.3602434 135.517785,14.3997833 135.080876,14.4845122 C133.038185,14.8686158 132.448075,14.3602434 132.606951,12.2985104 C132.782849,10.0164829 133.639644,7.89261569 134.212732,5.71226262 C134.360261,5.13610714 134.632619,4.48652009 133.951721,4.17019943 C133.316218,3.87647311 132.964422,4.46957434 132.635321,4.92146098 C130.938753,7.2204343 129.247858,9.51940761 127.545616,11.8127323 C127.244887,12.2194303 126.904438,12.7560458 126.308654,12.4114821 C125.74124,12.0838643 126.104385,11.5528975 126.212193,11.0897137 C126.649103,9.22568129 127.114382,7.36164888 127.477527,5.48631929 C127.55129,5.11916139 127.210843,4.67292333 127.05764,4.26622534 C126.671799,4.42438567 126.172474,4.48087151 125.917137,4.75765207 C124.186525,6.64427882 122.524001,8.58174282 120.804736,10.4740182 C120.634513,10.6604214 120.260019,10.66607 119.976312,10.7564473 C119.896874,10.4909639 119.720976,10.2028862 119.760695,9.94869992 C119.902549,9.08446671 120.186256,8.23717925 120.282715,7.36729745 C120.367828,6.59909016 120.339457,5.79699137 120.231649,5.02878407 C120.146537,4.40179135 119.49401,4.13630794 118.954967,4.45827718 C116.844186,5.71791119 115.130596,7.41813471 113.604252,9.31041004 C113.473746,9.46857037 113.490769,9.96564567 113.621274,10.056023 C113.853914,10.2141833 114.285148,10.3215064 114.512114,10.2085347 C114.83554,10.0390773 115.039809,9.64367644 115.317842,9.36689587 C116.015762,8.66082299 116.708007,7.93780434 117.445645,7.27692013 C117.621544,7.1187598 118.075475,7.04532822 118.234351,7.16394847 C118.43862,7.31646021 118.614519,7.70621244 118.580473,7.96604726 C118.478339,8.64952581 118.336485,9.34995011 118.075475,9.98824 C117.417274,11.5698433 116.702333,13.1288522 115.976043,14.6878611 C115.760425,15.1566935 115.86256,15.4673656 116.242727,15.772389 C116.622895,16.071764 116.980366,16.1677899 117.354859,15.7893348 C118.654238,14.4619178 119.964964,13.1514466 121.241646,11.8070838 C122.109789,10.8976619 122.909844,9.92610559 123.777987,9.0223323 C123.925515,8.86982056 124.305682,8.80768614 124.509951,8.88111772 C124.674501,8.94325213 124.833377,9.27651853 124.827703,9.47986753 C124.816355,9.81878252 124.697198,10.1633461 124.589389,10.4909639 C124.163829,11.790138 123.721246,13.0836635 123.295685,14.3828377 C123.136809,14.8686158 123.210572,15.2922595 123.647481,15.6255259 C124.101413,15.9644408 124.464558,15.7893348 124.856074,15.5182028 C125.134107,15.3205025 125.463207,15.190585 125.758263,15.0098304 C126.206519,14.7386984 126.717192,14.5184036 127.074663,14.1512458 C127.971177,13.2418239 128.788254,12.2533218 129.656397,11.3213056 C129.809599,11.1631453 130.121677,10.9936878 130.291901,11.044525 C130.462126,11.1010109 130.621001,11.4173315 130.655046,11.6376263 C130.706114,11.9765412 130.66072,12.332402 130.643698,12.6769656 C130.535889,14.6935098 131.528863,15.8740635 133.554532,16.1169527 C134.802844,16.2638158 135.937672,15.8232263 137.078173,15.4165283 C137.82716,15.151045 138.519406,15.2131793 139.245696,15.5182028 C139.710976,15.7102546 140.227322,15.800632 140.726647,15.8571178 C142.043047,16.0152781 143.274336,15.7272004 144.443209,15.122802 C145.118432,14.7725898 145.742587,14.7782385 146.406462,15.2301251 C147.461853,15.9474952 148.625051,16.2581673 149.913081,15.9136036 C151.496166,15.4843114 152.880657,14.7104554 154.128968,13.6654676 C154.730428,13.1570951 155.275145,13.3096068 155.485088,14.0495713 C155.887952,15.4278255 156.949017,16.2129785 158.3789,15.936198 C159.218673,15.772389 160.09249,15.4108798 160.779061,14.9081559 C161.732318,14.2246773 162.532371,13.3265526 163.400515,12.5131567 C163.831749,12.1064586 164.274332,12.089513 164.603433,12.4792651 C164.904163,12.8351258 164.909837,14.1851372 164.597758,14.6087809 C164.200569,15.1623421 163.729615,15.0832619 163.17355,14.8290757 C163.031696,14.7612927 162.685574,14.9759389 162.526697,15.151045 C162.413214,15.2753137 162.356473,15.5916344 162.435911,15.7328489 C163.014673,16.7495939 164.660175,17.060266 165.4886,16.2694644 C166.334046,15.461717 167.014943,14.4675664 166.657472,13.2418239 C166.27163,11.9426497 165.743935,10.6773671 165.182195,9.43467886 C164.904163,8.82463189 164.104109,8.93760356 163.723941,9.54200194 C163.491302,9.90915984 163.241639,10.2819663 162.935235,10.5813412 C162.362148,11.1179566 161.766362,11.6376263 161.130859,12.1064586 C160.313782,12.6995599 159.47401,13.2926611 158.588844,13.7784393 C157.839857,14.1907858 157.193005,13.7332505 157.289464,12.8916117 C157.482386,11.2704684 157.800138,9.68321651 158.668282,8.25977358 C159.020078,7.68926669 159.50238,7.3503517 160.205974,7.33340596 C160.762039,7.31646021 161.323779,7.27127154 161.874172,7.17524563 C163.672874,6.8532764 165.471577,6.50306425 167.264606,6.13025777 C167.378088,6.10766343 167.536964,5.66707395 167.485896,5.61058812 C167.29865,5.42983346 167.031965,5.23778164 166.793651,5.23213305 M139.881199,12.6543713 C139.512381,12.6261283 139.205977,12.3945364 139.183281,11.8974611 C139.160583,11.3608457 139.807435,10.8468246 140.448613,10.8468246 C140.959287,10.8524732 141.311083,11.0671194 141.356476,11.5980862 C141.401869,12.0782157 140.635861,12.6543713 139.881199,12.6543713 M148.051963,11.1179566 C148.494546,10.8637704 148.857691,10.7846902 149.044938,11.004985 C149.215161,11.2083339 148.715838,11.8635696 148.063311,12.2476732 C147.74556,12.4227794 147.416459,12.4736166 147.257584,12.2476732 C147.093033,12.0104328 147.501572,11.4455744 148.051963,11.1179566" id="Fill-63" fill="#4E4E4E" fill-rule="nonzero"></path>
                            <path d="M40.116746,10.5830358 C40.0713529,10.2384722 39.833039,9.780937 38.9592212,9.55499368 C38.590402,9.45896777 38.227257,9.4137791 37.8754602,9.4137791 C36.9278787,9.4137791 36.0767574,9.77528842 35.6058038,10.3514439 C35.617152,10.1085548 35.5944554,9.7470455 35.4469278,9.45331919 L35.4185571,9.39683336 C35.2710294,9.10310704 35.1575466,8.86586655 34.7546825,8.86586655 C34.5844583,8.86586655 34.3745151,8.90540663 34.0794598,8.99013538 C33.7900785,9.07486412 33.4780008,9.12570137 33.205642,9.16524145 C33.1772713,9.17089004 33.1489006,9.17653861 33.1262039,9.1821872 L33.1262039,9.17089004 C32.2069931,9.38553619 31.2821081,9.4476706 30.3061558,9.06921554 C29.9600332,8.93364955 29.5004277,9.05791837 29.0975637,9.1144042 C27.8095337,9.2838617 27.0718953,10.2102293 26.419369,11.1648399 C25.8235842,12.0460188 25.2504959,13.0062779 25.4547651,14.1359945 C25.4831358,14.2941549 25.5228547,14.4353695 25.5739221,14.576584 C25.2731926,14.5313954 24.9497664,14.4184237 24.6774076,14.4862067 C23.321288,14.7968788 22.3056167,14.03432 22.5439306,12.6899573 C22.8503341,10.9445451 23.2758948,9.21043012 23.7525226,7.49890945 C24.291566,5.58403978 24.9611147,3.69741303 25.5115065,1.78254337 C25.5966186,1.50011421 25.4604391,1.01998466 25.2448219,0.827932832 C25.09162,0.686718255 24.5525766,0.777095585 24.3312851,0.946553076 C23.809264,1.35889965 23.3496587,1.85597495 22.9014015,2.35869885 C20.7055088,4.81583248 18.5152903,7.28426329 16.3193977,9.7470455 C16.1037803,9.98993458 15.8824887,10.2384722 15.6158041,10.4192269 C15.2469849,10.6734131 14.8951882,10.6847103 14.8214244,10.119852 C14.7873795,9.89390867 14.7646829,9.65101959 14.8100761,9.43072485 C15.0597383,8.27841391 15.371816,7.13740012 15.5874334,5.97944059 C15.7690059,4.97964139 15.9278819,3.96289644 15.9562526,2.95180006 C15.9676008,2.505562 15.7292869,1.86727212 15.3945126,1.65262597 C15.1335021,1.48881705 14.5320431,1.82773204 14.0894601,1.97459519 C13.9419325,2.01978386 13.8284497,2.16099844 13.6979444,2.26267294 C11.8822192,3.72000736 10.509077,5.56709403 9.13593481,7.4141807 C8.84655362,7.80958151 8.58554312,8.34619691 7.99543243,8.06941634 C7.46773729,7.8152301 7.74009607,7.30120904 7.82520819,6.88321389 C8.2110498,5.05307297 8.41531888,3.22293206 7.79683748,1.39279114 C7.51880456,0.573746593 7.22942336,0.381694769 6.46908843,0.777095585 C3.97814043,2.08191828 1.60067525,3.53360413 0.00624155536,5.9455491 C0.000567414125,6.12630376 0.000567414125,6.312707 0.000567414125,6.49911024 C0.687138504,7.44242362 0.965171426,7.40853211 1.61202353,6.47086732 C2.62769481,4.99658714 3.99516285,3.86687053 5.51583271,2.9405029 C6.1059434,2.58464217 6.63363852,2.9405029 6.65633509,3.62963004 C6.73009893,5.93425193 6.07189854,8.11460499 5.51015857,10.3119038 C5.3229119,11.0462196 5.04487898,11.7635896 4.74414949,12.4583654 C4.26752163,13.5428934 3.73415235,14.5935298 3.24050206,15.6611119 C2.91707601,16.3558877 3.01353641,16.8586116 3.52420913,17.1071493 C4.15971294,17.4178213 4.46044243,16.9546376 4.7725202,16.542291 C4.82926161,16.4688593 4.86330645,16.3841306 4.91437373,16.3050504 C6.34993146,14.0286715 7.79116334,11.7522925 9.22104694,9.47026493 C10.350201,7.67966411 11.4907034,5.90036043 13.039744,4.43172883 C13.2213165,4.26227135 13.6468771,4.09846243 13.805753,4.19448834 C14.0213704,4.31875717 14.2029429,4.69721223 14.1972688,4.96269564 C14.1915947,5.48801387 14.1008085,6.03027785 13.9589548,6.53865032 C13.1929458,9.30645603 12.4155885,12.0629646 11.6098604,14.8194731 C11.4509844,15.3447913 11.4226137,15.7740837 11.9332865,16.0904043 C12.4666557,16.4180221 12.7730594,15.9887298 13.0510923,15.6893549 C13.7944048,14.8816075 14.5093466,14.0569144 15.2015918,13.2152755 C17.1932153,10.7920334 19.1564683,8.35184548 21.1651143,5.9455491 C21.358035,5.71395719 21.7835956,5.68571428 22.0956735,5.56144544 C22.1467407,5.90036043 22.3056167,6.2788155 22.2205046,6.58383898 C21.794944,8.06941634 21.2559005,9.53239935 20.8587106,11.0292739 C20.6544416,11.7974812 20.4842172,12.6560658 20.6147225,13.4186245 C21.0005641,15.5763832 23.3156138,16.5309938 25.0632493,15.5086002 C25.3185856,15.3560885 25.4207202,14.9380934 25.5852703,14.6274213 C25.9597636,15.6498148 26.8449296,16.2203217 28.2067236,16.3954278 C29.3245293,16.5366423 31.4693548,15.5481403 31.9459826,14.7008528 C32.564464,13.5767848 32.7573848,12.3905824 32.4736777,11.1365969 C32.3942398,10.769439 32.3885656,10.5209014 32.4850261,10.3570925 C32.5474416,10.390984 32.6155312,10.4079297 32.7063175,10.4079297 C32.8141262,10.4079297 32.9446314,10.390984 33.1091816,10.3627411 C33.2340127,10.3401467 33.3815404,10.3175524 33.5517646,10.3006066 C33.971651,10.2497694 34.1759201,10.2667151 34.249684,10.3683896 C34.3404702,10.4870099 34.289403,10.7468447 34.1645719,11.1874342 L33.4723266,13.684108 C33.4496301,13.7518909 32.8538453,15.4069257 33.3134506,16.0565128 C33.4326076,16.2316189 33.6198543,16.3163476 33.8581682,16.3163476 L33.8922131,16.3163476 C35.0610862,16.271159 35.214288,15.497303 35.333445,14.8703103 C35.3561415,14.7686359 35.3731639,14.6782585 35.3958605,14.576584 C35.8724884,12.5826343 36.4115318,11.4698633 36.9959683,11.2834601 L37.0810804,11.2552172 C37.5804049,11.0857597 38.0570328,10.9332479 38.3804588,10.9332479 C38.630121,10.9332479 38.7549522,11.0236253 38.7776487,11.2213257 C38.8514125,11.718401 38.9081539,12.1759362 39.555006,11.8031297 C39.8841062,11.6167265 40.1848357,11.0801111 40.116746,10.5830358 M31.0267718,13.5711362 C30.4820542,14.604827 29.5912139,15.0454164 28.3939701,15.0397679 C27.1172884,15.1019023 26.6860536,14.1134002 27.2024005,12.8876577 C27.463411,12.2776107 28.0591959,11.8144269 28.5074531,11.2891087 C28.547172,11.24392 28.6322841,11.2269743 28.6946996,11.2043799 C29.835202,10.7468447 30.2891334,11.8144269 31.0040751,12.2663135 C31.5431186,12.5995799 31.2594116,13.1305468 31.0267718,13.5711362" id="Fill-65" fill="#4E4E4E" fill-rule="nonzero"></path>
                        </g>
                    </g>
                </g>
            </g>
        </g>
    </g>
</svg>